<svg xmlns="http://www.w3.org/2000/svg" viewBox="0 0 33.05 37.17"><defs><style>.cls-1{fill:#f7f7f7;}</style></defs><title>icon-safety</title><g id="Layer_2" data-name="Layer 2"><g id="Layer_1-2" data-name="Layer 1"><path class="cls-1" d="M30.17,5.65,21.55,1.88C20.36,1.36,19.16.73,17.93.32A4.76,4.76,0,0,0,16.22,0c-1.86.07-3.94,1.48-5.6,2.24L2.43,6C.6,6.8-.34,7.4.11,9.57c1,4.8,2,9.77,4.19,14.2A37.06,37.06,0,0,0,9.11,31.2c1.67,2,4,4.92,6.54,5.82,2.39.84,4.86-1.89,6.34-3.39,6.28-6.38,9.17-14.75,10.88-23.37,0-.22.07-.43.1-.62C33.36,7.06,32.42,6.63,30.17,5.65Zm-3.63,8.89-.26.28-6,6c-.9.9-1.82,1.78-2.66,2.72-.57.63-1.4,1.85-2.4,1.39a3.07,3.07,0,0,1-.94-.78c-1.13-1.24-2.32-2.44-3.55-3.58-.85-.79-2.16-1.88-1-3,.42-.39.67-1,1.13-1.31,1-.75,1.57.4,2.19,1,2.56,2.48,2.55,2.48,5,0,1.82-1.82,3.66-3.63,5.46-5.47.8-.84,1.51-1.36,2.37-.1S27.76,13.21,26.54,14.54Z"/></g></g></svg>