<svg xmlns="http://www.w3.org/2000/svg" viewBox="0 0 30.98 46.67"><defs><style>.cls-1{fill:#f7f7f7;}</style></defs><title>icon-warranty</title><g id="Layer_2" data-name="Layer 2"><g id="Layer_1-2" data-name="Layer 1"><path class="cls-1" d="M25.2,27.49a15,15,0,0,0,5.55-14.65A15.48,15.48,0,1,0,5.34,27.11,1.44,1.44,0,0,1,5.85,29C4.59,32.29,3.42,35.6,2.12,39.16,4,38.51,5.61,38,7.21,37.35c1-.41,1.57-.31,2.06.77.71,1.53,1.62,3,2.56,4.66l3.39-9.2L20,46.67a45.13,45.13,0,0,0,2.44-4.43c.57-1.35,1.29-1.41,2.48-.91,1.5.63,3.07,1.11,4.81,1.73-1.72-4.73-3.34-9.24-5-13.72A1.35,1.35,0,0,1,25.2,27.49Zm-13.78,9.8a11.59,11.59,0,0,1-1-1.79C10,34.23,9.23,34,8.08,34.67a14.32,14.32,0,0,1-2.16.74c.77-2.09,1.47-4,2.15-5.89.21-.57.55-.18.76-.08a16.24,16.24,0,0,0,4.93,1.43C13,33,12.24,35.06,11.42,37.29ZM2.29,15.47A13.21,13.21,0,1,1,15.43,28.69,13.16,13.16,0,0,1,2.29,15.47Zm20,22.81c-.94.21-1.1,1.82-1.92,2.85-1.19-3.27-2.33-6.42-3.49-9.57-.22-.61.08-.72.59-.76a13.15,13.15,0,0,0,4.07-1.1c.38-.17.75-.41,1,.22,1.09,3,2.19,6.09,3.36,9.35C24.53,38.84,23.31,38.05,22.32,38.28Z"/><path class="cls-1" d="M22.48,11.31c-2.57,4-5.1,8.11-7.73,12.28-2.18-2.32-4.31-4.52-6.37-6.78-.69-.77.37-.95.65-1.36s.56-.7,1.08-.13c1.15,1.31,2.41,2.53,3.57,3.84.58.67.85.57,1.28-.15,1.82-3,3.73-5.9,5.53-8.87.48-.79.8-1,1.68-.47S23,10.57,22.48,11.31Z"/></g></g></svg>