<svg xmlns="http://www.w3.org/2000/svg" viewBox="0 0 33.05 44.7"><defs><style>.cls-1{fill:#f7f7f7;}</style></defs><title>icon-install</title><g id="Layer_2" data-name="Layer 2"><g id="Layer_1-2" data-name="Layer 1"><path class="cls-1" d="M26.41,16.06c-.49-.28-1.06-.48-1.33-1a3.21,3.21,0,0,1,1-3.89c1.61-1.13,1.62-1.16.79-3,0,0,0-.11-.07-.16-.85-1.62-.43-2.14-3-1.41-.5.14-1.05.37-1.56,0-1.32-1-2.47-2.15-1.67-4.07a.94.94,0,0,0,0-.16A1.06,1.06,0,0,0,19.92.92L17.47,0H17a5.86,5.86,0,0,0-1.33,1.83,1.53,1.53,0,0,1-1.56.93,9.13,9.13,0,0,0-1.28,0,1.36,1.36,0,0,1-1.41-.72,7.23,7.23,0,0,0-.44-.64C10,.1,9.84,0,8.37.7,5.73,1.93,6,1.58,6.61,4.09A1.65,1.65,0,0,1,6.07,6,.34.34,0,0,0,6,6.12a2.6,2.6,0,0,1-3.24,1C1.41,6.82,1.26,7,.78,8.25l-.78,2v.51a7.15,7.15,0,0,0,2,1.43,1.75,1.75,0,0,1,.82,1.39,2.94,2.94,0,0,1-1.74,3.55,2.12,2.12,0,0,0-.21.15A1,1,0,0,0,.46,18.7c.31.69.63,1.39.9,2.11a1.12,1.12,0,0,0,1.57.7c.5-.14,1-.24,1.49-.37a1.31,1.31,0,0,1,.76,0,3.35,3.35,0,0,1,2,3.42c-.32,2-.32,2,1.56,2.71l.16.05c1.91.71,1.91.71,3-1.09a2.81,2.81,0,0,1,4.6-.21c1.33,1.83,1,1.94,3.32.89C21.69,26,21.69,26,21.17,24a2.83,2.83,0,0,1,3.09-3.44c2.24.33,2.24.33,3-1.87a1,1,0,0,0,.07-.15C27.89,17,27.85,16.9,26.41,16.06ZM13.78,8a5.81,5.81,0,0,1,5.91,6,5.85,5.85,0,0,1-5.83,5.88A5.92,5.92,0,0,1,13.78,8Z"/><path class="cls-1" d="M21.52,34.77a1.3,1.3,0,0,1-1-.77,1.61,1.61,0,0,1,.21-2.08c.67-.74.08-1.23-.4-1.72s-.87-.91-1.65-.36c-1.33.94-2.56.45-2.82-1.12-.15-.88-.59-1-1.35-1s-1.45-.1-1.61,1a1.64,1.64,0,0,1-2.75,1.14c-.86-.68-1.29-.18-1.86.33s-.79,1-.28,1.73a1.66,1.66,0,0,1-1.21,2.79c-.79.1-1,.49-1,1.19s-.21,1.55.95,1.75A1.67,1.67,0,0,1,8,40.46c-.57.89-.55.87.47,1.95.55.59,1,.53,1.62.1A1.68,1.68,0,0,1,12.8,43.7a2,2,0,0,0,.39,1h2.22a8.1,8.1,0,0,0,.31-1c.33-1.54,1.51-2,2.79-1.11.73.52,1.17.25,1.67-.27s1.07-1,.41-1.79c-.25-.31-.59-.62-.49-1.12a1.87,1.87,0,0,1,1.78-1.75c.31-.05.63-.06.81-.38A1.75,1.75,0,0,0,21.52,34.77Zm-10.7,1.42a3.5,3.5,0,0,1,3.42-3.54,3.55,3.55,0,0,1,3.55,3.5,3.42,3.42,0,0,1-3.48,3.53A3.37,3.37,0,0,1,10.82,36.19Z"/><path class="cls-1" d="M32.63,29.18C31.38,28.6,31.22,28.06,32,27c.35-.46.15-.76-.12-1.11s-.55-.67-1.13-.41c-1,.44-1.8,0-1.81-1s-.7-.74-1.18-.89-.66.22-.81.62a1.19,1.19,0,0,1-2,.51c-.42-.39-.73-.43-1.15-.06s-.79.6-.47,1.25a1.16,1.16,0,0,1-1,1.79c-.7,0-.82.4-.93.93s.1.87.65,1.09a1.13,1.13,0,0,1,.46,1.95c-.49.52-.26.91,0,1.35s.6.59,1.14.3a1.16,1.16,0,0,1,1.77,1.06c0,.62.3.79.82.83s.92.22,1.15-.49a1.14,1.14,0,0,1,2-.52.71.71,0,0,0,1.1,0c.37-.31.79-.51.51-1.16-.46-1.07,0-1.79,1.18-1.92a1.39,1.39,0,0,0,.77-.42V29.46A2.79,2.79,0,0,0,32.63,29.18Zm-3,.14a2.4,2.4,0,1,1-4.8,0,2.47,2.47,0,0,1,2.36-2.43A2.44,2.44,0,0,1,29.63,29.32Z"/></g></g></svg>